<svg width="141" height="140" viewBox="0 0 141 140" fill="none" xmlns="http://www.w3.org/2000/svg">
<path d="M88.0039 0C90.2125 0 92.0032 1.7901 92.0039 3.99875L92.0149 39.3695C92.0156 41.5797 90.2238 43.3715 88.0137 43.3708L52.7695 43.3598C50.5623 43.3591 48.7728 41.5707 48.7707 39.3635L48.7376 4.00375C48.7356 1.79315 50.527 0 52.7376 0H88.0039Z" fill="#007EA4"/>
<path d="M3.98129 90.9011C1.77948 90.8908 0 89.103 0 86.9011V51.6884C0 49.4713 1.8033 47.6771 4.02037 47.6884L39.3342 47.8683C41.5353 47.8795 43.3138 49.667 43.3138 51.8682V87.0663C43.3138 89.2827 41.5115 91.0766 39.2951 91.0662L3.98129 90.9011Z" fill="#007EA4"/>
<path d="M92.0206 136.005C92.018 138.212 90.2279 140 88.0206 140H52.7911C50.5824 140 48.7918 138.21 48.7911 136.001L48.7801 100.635C48.7794 98.4252 50.5712 96.6334 52.7813 96.634L88.0622 96.645C90.2727 96.6457 92.0635 98.4392 92.061 100.649L92.0206 136.005Z" fill="#007EA4"/>
<path d="M140.754 87.0841C140.754 89.2936 138.963 91.0845 136.753 91.0841L101.48 91.0767C99.2716 91.0763 97.4812 89.2853 97.4814 87.0763L97.4851 51.8728C97.4853 49.6645 99.2751 47.8742 101.483 47.8733L136.752 47.8586C138.962 47.8577 140.754 49.6488 140.754 51.8586V87.0841Z" fill="#007EA4"/>
<path d="M88.065 50.3003C88.8936 50.2999 89.5659 50.9716 89.5659 51.8003V87.1421C89.5659 87.9706 88.8935 88.6422 88.065 88.6421L52.6753 88.6352C51.8471 88.635 51.1753 87.9635 51.1753 87.1352L51.1792 51.8149C51.1793 50.9868 51.8511 50.3153 52.6792 50.3149L88.065 50.3003Z" stroke="#004B73" stroke-width="5"/>
</svg>
